<?xml version="1.0" encoding="UTF-8" standalone="no"?>
<svg xmlns="http://www.w3.org/2000/svg" version="1.1" id="Layer_1" x="0px" y="0px" viewBox="0 0 96.999999 97.000002"
     enable-background="new 0 0 841.9 595.3" xml:space="preserve"  width="97" height="97" style="background: grey">
	<g id="g3572" transform="translate(-372.3,-249.3)">
        <g id="g3574">
            <rect x="411.79999" y="287.29999" width="17" height="45" id="rect3576" style="fill:#ffffff" />
            <circle cx="420.60001" cy="273.29999" r="8.8999996" id="circle3578" style="fill:#ffffff" />
        </g>
        <g id="g3580">
            <path d="m 420.8,346.3 c -26.7,0 -48.5,-21.8 -48.5,-48.5 0,-26.7 21.8,-48.5 48.5,-48.5 26.7,0 48.5,21.8 48.5,48.5 0,26.8 -21.7,48.5 -48.5,48.5 z m 0,-89 c -22.3,0 -40.5,18.2 -40.5,40.5 0,22.3 18.2,40.5 40.5,40.5 22.3,0 40.5,-18.2 40.5,-40.5 0,-22.3 -18.1,-40.5 -40.5,-40.5 z" id="path3582" style="fill:#ffffff" />
        </g>
    </g>
</svg>