<?xml version="1.0" encoding="utf-8"?>
<!-- Generator: Adobe Illustrator 18.0.0, SVG Export Plug-In . SVG Version: 6.00 Build 0)  -->
<!DOCTYPE svg PUBLIC "-//W3C//DTD SVG 1.1//EN" "http://www.w3.org/Graphics/SVG/1.1/DTD/svg11.dtd">
<svg version="1.1" id="Layer_1" xmlns="http://www.w3.org/2000/svg" xmlns:xlink="http://www.w3.org/1999/xlink" x="0px" y="0px"
	 viewBox="0 0 841.9 595.3" enable-background="new 0 0 841.9 595.3" xml:space="preserve" style="background: grey">
<g>
	<polygon opacity="0.8" fill="#FFFFFF" points="253,322.7 233.5,330 233.5,272.6 253,265.3 	"/>
	<polygon opacity="0.4" fill="#FFFFFF" points="298.2,322.7 278.7,330 278.7,272.6 298.2,265.3 	"/>
	<polygon opacity="0.6" fill="#FFFFFF" points="256.6,322.7 275.1,330 275.1,272.6 256.6,265.3 	"/>
	<g>
		<path fill="#FFFFFF" d="M326.9,277v23.2h-5.2V277h-6.3v-4.6h18.4L333,277H326.9z"/>
		<path fill="#FFFFFF" d="M335.8,272.4h5.3v27.8h-5.3V272.4z"/>
		<path fill="#FFFFFF" d="M346.3,300.2v-27.8h5.3v23.2h9.2l-0.9,4.6H346.3z"/>
		<path fill="#FFFFFF" d="M376.8,299.9c-1.4,0.4-2.9,0.6-4.4,0.6c-1.9,0-3.6-0.3-5-1s-2.7-1.8-3.7-3.2c-0.9-1.3-1.6-2.7-2.1-4.3
			c-0.4-1.5-0.7-3.4-0.7-5.4c0-5.8,1.8-10.1,5.3-12.6c0.9-0.7,1.9-1.2,2.9-1.5c1-0.3,2.1-0.5,3.4-0.5c1.5,0,3,0.3,4.4,0.8
			c1.4,0.5,2.6,1.3,3.8,2.4l-2.7,3.5c-1.6-1.4-3.4-2.2-5.4-2.2c-1.5,0-2.8,0.5-3.7,1.4c-0.9,0.9-1.4,2.1-1.7,3.6s-0.4,3.3-0.4,5.4
			c0,3.9,0.6,6.5,1.9,7.9c1,1,2.3,1.6,4.1,1.6c1.1,0,2.1-0.2,2.9-0.7v-6.3h-3.9l-0.7-4.6h9.9V298
			C379.6,298.9,378.2,299.5,376.8,299.9z"/>
		<path fill="#FFFFFF" d="M391,297.1c0,0.6,0,1.1-0.1,1.5c0,0.4-0.1,0.7-0.1,1c0,0.3-0.1,0.5-0.2,0.8c-0.2,0.9-0.5,1.6-0.9,2.3
			s-0.9,1.3-1.4,1.9c-0.5,0.5-1.1,1-1.7,1.4c-0.6,0.4-1.2,0.7-1.8,0.9l-2.4-2.9c0.7-0.5,1.3-1,1.8-1.6c0.6-0.6,0.9-1.2,1.2-1.8
			c0.1-0.2,0.2-0.5,0.3-0.8c0.1-0.3,0.1-0.6,0.2-1c0-0.4,0.1-0.8,0.1-1.4c0-0.5,0-1.2,0-1.9v-23h5.2v22.4
			C391.1,295.7,391.1,296.5,391,297.1z"/>
		<path fill="#FFFFFF" d="M396.3,272.4h14.6l-0.7,4.6h-8.8v6.4h7.3v4.6h-7.3v7.4h9.7v4.8h-14.9V272.4z"/>
		<path fill="#FFFFFF" d="M422.6,289.6c-0.4-0.9-0.7-1.8-1.1-2.7s-0.7-1.7-1-2.6c-0.3-0.8-0.6-1.6-0.9-2.2c-0.2-0.7-0.4-1.2-0.5-1.6
			c0,0.6,0.1,1.2,0.1,1.8c0,0.7,0.1,1.3,0.1,2c0,0.7,0,1.4,0,2.1c0,0.7,0,1.3,0,1.9l0.1,11.9h-5v-27.8h5.7l4.9,11.1
			c0.6,1.5,1.2,3,1.7,4.3c0.5,1.4,0.9,2.5,1.1,3.6c0-0.5-0.1-1.1-0.1-1.8c0-0.7-0.1-1.4-0.1-2.1c0-0.7-0.1-1.4-0.1-2
			c0-0.7,0-1.2,0-1.7l-0.1-11.4h5v27.8H427L422.6,289.6z"/>
		<path fill="#FFFFFF" d="M452.3,299.9c-1.4,0.4-2.9,0.6-4.4,0.6c-1.9,0-3.6-0.3-5-1s-2.7-1.8-3.7-3.2c-0.9-1.3-1.6-2.7-2.1-4.3
			c-0.4-1.5-0.7-3.4-0.7-5.4c0-5.8,1.8-10.1,5.3-12.6c0.9-0.7,1.9-1.2,2.9-1.5c1-0.3,2.1-0.5,3.4-0.5c1.5,0,3,0.3,4.4,0.8
			c1.4,0.5,2.6,1.3,3.8,2.4l-2.7,3.5c-1.6-1.4-3.4-2.2-5.4-2.2c-1.5,0-2.8,0.5-3.7,1.4c-0.9,0.9-1.4,2.1-1.7,3.6s-0.4,3.3-0.4,5.4
			c0,3.9,0.6,6.5,1.9,7.9c1,1,2.3,1.6,4.1,1.6c1.1,0,2.1-0.2,2.9-0.7v-6.3h-3.9l-0.7-4.6h9.9V298C455,298.9,453.7,299.5,452.3,299.9
			z"/>
		<path fill="#FFFFFF" d="M461.2,272.4h14.6l-0.7,4.6h-8.8v6.4h7.3v4.6h-7.3v7.4h9.7v4.8h-14.9V272.4z"/>
		<path fill="#FFFFFF" d="M479.4,300.2v-27.8h5.3v23.2h9.2l-0.9,4.6H479.4z"/>
		<path fill="#FFFFFF" d="M496.6,272.4h5.3v27.8h-5.3V272.4z"/>
		<path fill="#FFFFFF" d="M521.9,299.9c-1.4,0.4-2.9,0.6-4.4,0.6c-1.9,0-3.6-0.3-5-1s-2.7-1.8-3.7-3.2c-0.9-1.3-1.6-2.7-2.1-4.3
			c-0.4-1.5-0.7-3.4-0.7-5.4c0-5.8,1.8-10.1,5.3-12.6c0.9-0.7,1.9-1.2,2.9-1.5c1-0.3,2.1-0.5,3.4-0.5c1.5,0,3,0.3,4.4,0.8
			c1.4,0.5,2.6,1.3,3.8,2.4l-2.7,3.5c-1.6-1.4-3.4-2.2-5.4-2.2c-1.5,0-2.8,0.5-3.7,1.4c-0.9,0.9-1.4,2.1-1.7,3.6s-0.4,3.3-0.4,5.4
			c0,3.9,0.6,6.5,1.9,7.9c1,1,2.3,1.6,4.1,1.6c1.1,0,2.1-0.2,2.9-0.7v-6.3h-3.9l-0.7-4.6h9.9V298
			C524.7,298.9,523.3,299.5,521.9,299.9z"/>
		<path fill="#FFFFFF" d="M543.3,287.8H536v12.4h-5.2v-27.8h5.2v10.8h7.3v-10.8h5.2v27.8h-5.2V287.8z"/>
		<path fill="#FFFFFF" d="M553.7,272.4h14.6l-0.7,4.6h-8.8v6.4h7.3v4.6h-7.3v7.4h9.7v4.8h-14.9V272.4z"/>
		<path fill="#FFFFFF" d="M581.2,277v23.2H576V277h-6.3v-4.6h18.4l-0.8,4.6H581.2z"/>
	</g>
	<g>
		<path fill="#FFFFFF" d="M321.4,313.5c-0.2-0.5-0.4-0.9-0.6-1.4c-0.2-0.5-0.4-0.9-0.6-1.4s-0.3-0.8-0.5-1.2
			c-0.1-0.4-0.2-0.7-0.3-0.9l-0.1,0c0.1,0.8,0.1,1.6,0.1,2.5c0,0.9,0,1.7,0.1,2.5l0.1,9.4h-2.3v-17.9h2.7l4.6,9.9
			c0.2,0.4,0.4,0.8,0.5,1.2s0.3,0.9,0.5,1.3c0.2,0.4,0.3,0.8,0.4,1.1c0.1,0.3,0.2,0.5,0.2,0.7l0.1-0.1c0-0.1,0-0.4-0.1-0.8
			c0-0.4-0.1-0.8-0.1-1.4c0-0.5,0-1-0.1-1.6c0-0.6,0-1.1,0-1.6l0-8.8h2.3v17.9h-2.5L321.4,313.5z"/>
		<path fill="#FFFFFF" d="M341.6,319.5c-0.2,0.8-0.6,1.5-1.1,2.1c-0.5,0.6-1,1-1.7,1.4s-1.4,0.5-2.2,0.5c-0.8,0-1.5-0.2-2.2-0.5
			s-1.2-0.8-1.6-1.4c-0.4-0.6-0.8-1.3-1-2.2s-0.4-1.8-0.4-2.9s0.1-2,0.4-2.8c0.2-0.8,0.6-1.6,1-2.2s1-1.1,1.6-1.4
			c0.6-0.3,1.4-0.5,2.2-0.5c0.9,0,1.7,0.2,2.3,0.5s1.2,0.9,1.7,1.5c0.4,0.6,0.8,1.4,1,2.2c0.2,0.8,0.3,1.8,0.3,2.8
			C342,317.7,341.8,318.6,341.6,319.5z M339.3,314.2c-0.1-0.7-0.3-1.2-0.6-1.6c-0.2-0.4-0.5-0.7-0.9-0.9c-0.3-0.2-0.7-0.3-1.2-0.3
			c-1,0-1.7,0.4-2.1,1.1s-0.6,2-0.6,3.6c0,1,0.1,1.8,0.2,2.5c0.1,0.7,0.3,1.2,0.5,1.6c0.2,0.4,0.5,0.7,0.9,0.9
			c0.4,0.2,0.8,0.3,1.2,0.3c0.8,0,1.5-0.4,2-1.1c0.5-0.8,0.7-2,0.7-3.7C339.5,315.8,339.4,314.9,339.3,314.2z"/>
		<path fill="#FFFFFF" d="M350.1,312c-0.1,0-0.2,0-0.3,0c-0.3,0-0.7,0.1-1,0.2c-0.3,0.1-0.6,0.3-0.8,0.6c-0.2,0.2-0.4,0.5-0.5,0.8
			c-0.1,0.3-0.2,0.7-0.2,1v8.4h-2.2v-9.6c0-0.8,0-1.4-0.1-1.9s-0.2-0.9-0.3-1.3l2.1-0.6c0.1,0.2,0.2,0.6,0.3,0.9
			c0.1,0.4,0.1,0.7,0.1,1.1v0.2c0.9-1.5,2-2.3,3.3-2.3c0.3,0,0.5,0,0.7,0.1l-0.8,2.3C350.3,312.1,350.2,312,350.1,312z"/>
		<path fill="#FFFFFF" d="M362.9,311.7c-0.3,0.1-0.7,0.2-1,0.2c-0.2,0-0.3,0-0.4,0s-0.3-0.1-0.6-0.2c0.3,0.4,0.5,0.8,0.7,1.2
			c0.1,0.4,0.2,0.8,0.2,1.2c0,0.5-0.1,0.9-0.2,1.4c-0.2,0.5-0.4,0.9-0.7,1.3c-0.3,0.4-0.8,0.7-1.3,0.9c-0.5,0.2-1.2,0.4-2,0.4
			c-0.2,0.1-0.4,0.2-0.6,0.3c-0.2,0.1-0.4,0.2-0.6,0.3c-0.2,0.1-0.3,0.2-0.5,0.4c-0.1,0.1-0.2,0.3-0.2,0.4c0,0.4,0.3,0.6,0.9,0.6
			h1.8c0.8,0,1.4,0.1,2,0.3c0.5,0.2,1,0.4,1.3,0.8c0.3,0.3,0.6,0.7,0.8,1.2c0.2,0.4,0.2,0.9,0.2,1.4c0,0.7-0.1,1.3-0.4,1.9
			c-0.3,0.5-0.6,1-1,1.3c-0.4,0.4-1,0.6-1.6,0.8c-0.6,0.2-1.3,0.3-2,0.3c-1.7,0-3-0.3-3.9-0.9c-0.9-0.6-1.4-1.4-1.4-2.5
			c0-0.3,0-0.5,0.1-0.7c0-0.2,0.1-0.4,0.2-0.6l2.2-0.1c0,0.1-0.1,0.2-0.1,0.4c0,0.2-0.1,0.4-0.1,0.6c0,1.4,1,2.1,2.9,2.1
			c1,0,1.7-0.2,2.2-0.6c0.5-0.4,0.7-0.9,0.7-1.6c0-0.6-0.3-1.1-0.8-1.5s-1.4-0.5-2.6-0.5c-0.4,0-0.8,0-1.3,0c-0.4,0-0.8-0.1-1-0.1
			c-0.5-0.1-0.9-0.3-1.2-0.6c-0.3-0.3-0.4-0.7-0.4-1.2c0-0.6,0.2-1.1,0.7-1.4c0.4-0.3,1-0.6,1.7-0.9c-0.9-0.3-1.6-0.8-2.1-1.4
			s-0.7-1.4-0.7-2.3c0-0.7,0.1-1.2,0.3-1.8c0.2-0.5,0.5-1,0.9-1.4c0.4-0.4,0.9-0.7,1.4-0.9s1.2-0.3,1.9-0.3c0.3,0,0.6,0,0.9,0.1
			c0.3,0,0.6,0.1,1,0.2c0.3,0.1,0.6,0.2,0.9,0.3c0.3,0.1,0.6,0.1,0.9,0.1c0.4,0,0.7-0.1,1-0.2c0.3-0.1,0.6-0.3,0.9-0.6l1.1,1.5
			C363.6,311.4,363.3,311.6,362.9,311.7z M357.2,311.5c-1.4,0-2.2,0.8-2.2,2.5c0,1.6,0.7,2.4,2.2,2.4c1.4,0,2.2-0.8,2.2-2.5
			C359.4,312.3,358.6,311.5,357.2,311.5z"/>
		<path fill="#FFFFFF" d="M367.4,317.4c0,1.2,0.2,2,0.5,2.6c0.3,0.5,0.7,0.9,1.2,1.2c0.5,0.3,1,0.4,1.6,0.4c1.1,0,2.1-0.4,2.9-1.2
			l0.8,1.4c-1.2,1.1-2.5,1.6-4.1,1.6c-0.8,0-1.6-0.2-2.2-0.5s-1.2-0.8-1.7-1.4c-0.5-0.6-0.8-1.3-1.1-2.2c-0.3-0.8-0.4-1.8-0.4-2.9
			c0-1.1,0.1-2.1,0.3-2.9c0.2-0.8,0.6-1.5,1.1-2.2c0.9-1.2,2.1-1.8,3.6-1.8c1.3,0,2.4,0.5,3.3,1.4c0.3,0.3,0.5,0.6,0.7,0.9
			c0.2,0.3,0.3,0.7,0.5,1.2c0.1,0.4,0.2,0.9,0.3,1.5s0.1,1.2,0.1,2v0.4h-7.2V317.4z M371.7,312.3c-0.2-0.3-0.4-0.5-0.7-0.6
			c-0.3-0.2-0.6-0.3-1-0.3c-0.9,0-1.5,0.3-1.9,1c-0.4,0.7-0.6,1.6-0.6,2.8h5C372.4,314,372.1,313,371.7,312.3z"/>
		<path fill="#FFFFFF" d="M385.5,320.8c-0.2,0.5-0.5,1-1,1.4c-0.4,0.4-0.9,0.7-1.5,0.9c-0.6,0.2-1.2,0.3-1.9,0.3
			c-0.7,0-1.5-0.1-2.3-0.4c-0.8-0.2-1.5-0.6-2.2-1l0.8-1.7c0.6,0.3,1.2,0.6,1.9,0.9c0.7,0.3,1.3,0.4,2,0.4s1.2-0.2,1.6-0.6
			c0.4-0.4,0.6-0.9,0.6-1.5c0-0.6-0.2-1-0.5-1.3c-0.3-0.3-0.8-0.6-1.5-0.7l-1.5-0.3c-1.9-0.4-2.9-1.6-2.9-3.6c0-0.6,0.1-1.1,0.3-1.6
			s0.5-0.9,0.9-1.3c0.4-0.4,0.9-0.6,1.4-0.8s1.1-0.3,1.8-0.3c0.7,0,1.4,0.1,2.1,0.3s1.2,0.5,1.7,0.8l-0.7,1.7
			c-0.6-0.3-1.1-0.5-1.5-0.7c-0.5-0.2-0.9-0.2-1.4-0.2c-0.6,0-1.1,0.2-1.5,0.5c-0.4,0.4-0.6,0.8-0.6,1.4c0,0.5,0.1,0.8,0.4,1.1
			c0.2,0.3,0.7,0.5,1.3,0.6l1.5,0.4c1.1,0.3,1.9,0.7,2.3,1.4s0.7,1.4,0.7,2.3C385.9,319.7,385.8,320.3,385.5,320.8z"/>
		<path fill="#FFFFFF" d="M389,307.5c0-0.7,0-1.2-0.1-1.7c-0.1-0.5-0.1-0.9-0.2-1.3l2.2-0.6c0.1,0.3,0.1,0.8,0.2,1.3
			c0.1,0.5,0.1,1,0.1,1.6v16.2H389V307.5z M391.4,315.7l4-5.6h2.7l-4.3,5.5l5.3,7.5h-2.8L391.4,315.7z"/>
		<path fill="#FFFFFF" d="M407.3,321.7c-0.1,0.1-0.2,0.3-0.4,0.4c-0.2,0.2-0.4,0.4-0.7,0.6c-0.3,0.2-0.6,0.4-1,0.5
			c-0.4,0.1-0.8,0.2-1.4,0.2c-1.2,0-2.1-0.3-2.8-1c-0.7-0.6-1-1.6-1-2.8c0-1.5,0.5-2.7,1.6-3.5c1.1-0.8,2.6-1.2,4.5-1.2h0.6
			c0.1,0,0.2,0,0.2,0v-0.9c0-0.4,0-0.7-0.1-1.1s-0.1-0.6-0.3-0.8s-0.3-0.4-0.6-0.5c-0.2-0.1-0.6-0.2-1-0.2c-0.6,0-1.3,0.1-2,0.4
			c-0.7,0.3-1.2,0.6-1.7,1l-1-1.7c0.3-0.2,0.6-0.4,0.9-0.6s0.7-0.4,1.1-0.6c0.4-0.2,0.9-0.3,1.3-0.4c0.5-0.1,1-0.2,1.6-0.2
			c0.9,0,1.6,0.2,2.2,0.5c0.6,0.3,1,0.9,1.2,1.6c0.1,0.3,0.2,0.6,0.2,0.9c0,0.3,0,0.8,0,1.4c0,0.2,0,0.5,0,0.9c0,0.4,0,0.7,0,1.2
			s0,0.9,0,1.4c0,0.5,0,0.9,0,1.4c0,0.5,0,0.8,0,1.2c0,0.3,0.1,0.6,0.1,0.8c0.1,0.2,0.2,0.5,0.3,0.6c0.1,0.2,0.3,0.4,0.6,0.5
			l-1.1,1.6C408.1,323.3,407.5,322.7,407.3,321.7z M406.5,316.6c-0.1,0-0.2,0-0.3,0c-0.8,0-1.5,0.1-2,0.2s-0.9,0.4-1.1,0.7
			c-0.2,0.3-0.4,0.6-0.5,0.9c-0.1,0.3-0.1,0.6-0.1,1.1c0,0.7,0.2,1.3,0.5,1.7c0.3,0.4,0.8,0.6,1.4,0.6c0.5,0,1-0.2,1.4-0.5
			c0.4-0.3,0.8-0.7,1.1-1.3l0.1-3.4C406.7,316.7,406.6,316.6,406.5,316.6z"/>
		<path fill="#FFFFFF" d="M418.1,312c-0.1,0-0.2,0-0.3,0c-0.3,0-0.7,0.1-1,0.2c-0.3,0.1-0.6,0.3-0.8,0.6c-0.2,0.2-0.4,0.5-0.5,0.8
			c-0.1,0.3-0.2,0.7-0.2,1v8.4h-2.2v-9.6c0-0.8,0-1.4-0.1-1.9s-0.2-0.9-0.3-1.3l2.1-0.6c0.1,0.2,0.2,0.6,0.3,0.9
			c0.1,0.4,0.1,0.7,0.1,1.1v0.2c0.9-1.5,2-2.3,3.3-2.3c0.3,0,0.5,0,0.7,0.1l-0.8,2.3C418.3,312.1,418.2,312,418.1,312z"/>
		<path fill="#FFFFFF" d="M423.8,311.7v7.9c0,0.8,0.1,1.4,0.3,1.7s0.6,0.4,1.2,0.4c0.4,0,0.8-0.1,1.1-0.3l0.3,1.4
			c-0.7,0.4-1.4,0.5-2.2,0.5c-0.4,0-0.8-0.1-1.2-0.2s-0.7-0.3-0.9-0.5c-0.1-0.1-0.2-0.2-0.3-0.4c-0.1-0.1-0.2-0.3-0.3-0.4
			c-0.1-0.2-0.1-0.4-0.2-0.7c0-0.3-0.1-0.7-0.1-1.1v-8.4h-1.4V310h1.4c0-0.5,0-1.1,0-1.7c0-0.6,0.1-1.2,0.1-1.7l2.3-0.6
			c0,0.2-0.1,0.5-0.1,0.8c0,0.3,0,0.6-0.1,1c0,0.3,0,0.7,0,1.1c0,0.4,0,0.7,0,1h2.9l-0.6,1.7H423.8z"/>
	</g>
</g>
</svg>
