<?xml version="1.0" encoding="utf-8"?>
<!-- Generator: Adobe Illustrator 18.0.0, SVG Export Plug-In . SVG Version: 6.00 Build 0)  -->
<!DOCTYPE svg PUBLIC "-//W3C//DTD SVG 1.1//EN" "http://www.w3.org/Graphics/SVG/1.1/DTD/svg11.dtd">
<svg version="1.1" id="Layer_1" xmlns="http://www.w3.org/2000/svg" xmlns:xlink="http://www.w3.org/1999/xlink" x="0px" y="0px"
	 viewBox="0 0 841.9 595.3" enable-background="new 0 0 841.9 595.3" xml:space="preserve" style="background: grey">
<polygon opacity="0.8" fill="#FFFFFF" points="295,322.7 275.5,330 275.5,272.6 295,265.3 "/>
<polygon opacity="0.4" fill="#FFFFFF" points="340.2,322.7 320.7,330 320.7,272.6 340.2,265.3 "/>
<polygon opacity="0.6" fill="#FFFFFF" points="298.6,322.7 317.1,330 317.1,272.6 298.6,265.3 "/>
<g>
	<path fill="#FFFFFF" d="M376.8,295.3c-0.5,1.2-1.2,2.1-2.1,3c-0.9,0.8-2,1.5-3.3,1.9c-1.3,0.4-2.8,0.7-4.3,0.7
		c-1.5,0-3-0.2-4.5-0.7c-1.5-0.4-2.9-1.1-4.3-1.8l1.9-4.3c1.2,0.7,2.3,1.2,3.4,1.6c1.1,0.4,2.3,0.6,3.6,0.6c3,0,4.5-1.3,4.5-3.8
		c0-1.7-1.1-2.9-3.4-3.6l-2.8-0.8c-1.3-0.4-2.3-0.8-3.1-1.4c-0.8-0.6-1.5-1.3-1.9-2.1c-0.7-1.3-1.1-2.7-1.1-4.2
		c0-1.3,0.2-2.5,0.7-3.5c0.4-1.1,1.1-2,1.9-2.7c0.8-0.8,1.8-1.3,2.9-1.8c1.1-0.4,2.4-0.6,3.7-0.6c1.6,0,3.1,0.2,4.6,0.7
		c1.5,0.5,2.8,1.2,3.9,2l-2.4,4c-1.2-0.8-2.2-1.3-3.2-1.6c-0.9-0.3-1.9-0.5-2.8-0.5c-1.1,0-1.9,0.3-2.6,0.9s-1,1.4-1,2.3
		c0,0.7,0.2,1.3,0.6,1.7s1.1,0.8,2.3,1.1l3.1,0.9c2.1,0.6,3.8,1.6,4.9,3c1.1,1.4,1.6,3.2,1.6,5.3
		C377.5,292.8,377.3,294.1,376.8,295.3z"/>
	<path fill="#FFFFFF" d="M390,277v23.2h-5.2V277h-6.3v-4.6H397l-0.8,4.6H390z"/>
	<path fill="#FFFFFF" d="M398.9,272.4h14.6l-0.7,4.6h-8.8v6.4h7.3v4.6h-7.3v7.4h9.7v4.8h-14.9V272.4z"/>
	<path fill="#FFFFFF" d="M433.3,296c-0.8,1.1-1.7,2.1-2.8,2.8c-1.1,0.7-2.2,1.1-3.4,1.2c-0.5,0.1-1,0.1-1.6,0.1c-0.6,0-1.3,0-2,0
		h-6.2v-27.8h5.1c0.7,0,1.5,0,2.4,0c0.9,0,1.5,0.1,2.1,0.1c1.1,0.1,2.1,0.4,3,0.8c0.9,0.4,1.8,1.1,2.6,1.9c1.2,1.3,2,2.8,2.6,4.6
		c0.6,1.8,0.9,4,0.9,6.5C435.8,290.3,435,293.5,433.3,296z M429.8,282.5c-0.2-1.3-0.5-2.4-1-3.4c-0.4-0.8-1-1.4-1.6-1.7
		c-0.6-0.4-1.5-0.6-2.5-0.6h-2.4v18.8h2.8c1.7,0,3-0.7,3.8-2.1c0.8-1.4,1.2-3.6,1.2-6.6C430.1,285.3,430,283.8,429.8,282.5z"/>
	<path fill="#FFFFFF" d="M456.3,295.3c-0.5,1.2-1.2,2.1-2.1,3c-0.9,0.8-2,1.5-3.3,1.9c-1.3,0.4-2.8,0.7-4.3,0.7
		c-1.5,0-3-0.2-4.5-0.7c-1.5-0.4-2.9-1.1-4.3-1.8l1.9-4.3c1.2,0.7,2.3,1.2,3.4,1.6c1.1,0.4,2.3,0.6,3.6,0.6c3,0,4.5-1.3,4.5-3.8
		c0-1.7-1.1-2.9-3.4-3.6L445,288c-1.3-0.4-2.3-0.8-3.1-1.4c-0.8-0.6-1.5-1.3-1.9-2.1c-0.7-1.3-1.1-2.7-1.1-4.2
		c0-1.3,0.2-2.5,0.7-3.5c0.4-1.1,1.1-2,1.9-2.7c0.8-0.8,1.8-1.3,2.9-1.8c1.1-0.4,2.4-0.6,3.7-0.6c1.6,0,3.1,0.2,4.6,0.7
		c1.5,0.5,2.8,1.2,3.9,2l-2.4,4c-1.2-0.8-2.2-1.3-3.2-1.6c-0.9-0.3-1.9-0.5-2.8-0.5c-1.1,0-1.9,0.3-2.6,0.9s-1,1.4-1,2.3
		c0,0.7,0.2,1.3,0.6,1.7s1.1,0.8,2.3,1.1l3.1,0.9c2.1,0.6,3.8,1.6,4.9,3c1.1,1.4,1.6,3.2,1.6,5.3
		C457.1,292.8,456.8,294.1,456.3,295.3z"/>
	<path fill="#FFFFFF" d="M468.8,289.6c-0.4-0.9-0.7-1.8-1.1-2.7s-0.7-1.7-1-2.6c-0.3-0.8-0.6-1.6-0.9-2.2c-0.2-0.7-0.4-1.2-0.5-1.6
		c0,0.6,0.1,1.2,0.1,1.8c0,0.7,0.1,1.3,0.1,2c0,0.7,0,1.4,0,2.1c0,0.7,0,1.3,0,1.9l0.1,11.9h-5v-27.8h5.7l4.9,11.1
		c0.6,1.5,1.2,3,1.7,4.3c0.5,1.4,0.9,2.5,1.1,3.6c0-0.5-0.1-1.1-0.1-1.8c0-0.7-0.1-1.4-0.1-2.1c0-0.7-0.1-1.4-0.1-2
		c0-0.7,0-1.2,0-1.7l-0.1-11.4h5v27.8h-5.4L468.8,289.6z"/>
	<path fill="#FFFFFF" d="M495.5,293.6H488l-1.8,6.6h-5.4l8.4-27.9h5.6l8.1,27.9h-5.5L495.5,293.6z M494.1,288.5
		c-0.1-0.3-0.2-0.8-0.3-1.3c-0.1-0.5-0.3-1.1-0.4-1.8c-0.2-0.7-0.3-1.3-0.5-2c-0.1-0.3-0.2-0.7-0.3-1.3l-0.3-1.6
		c-0.1-0.6-0.2-1-0.3-1.4l-0.1-0.6l-0.1,0.6c-0.1,0.3-0.2,0.8-0.3,1.3c-0.1,0.5-0.3,1.1-0.4,1.8c-0.1,0.6-0.3,1.2-0.4,1.7
		c-0.2,1-0.5,1.9-0.7,2.6c-0.2,0.7-0.4,1.6-0.7,2.5h5L494.1,288.5z"/>
	<path fill="#FFFFFF" d="M509.4,300.4l-8.7-28h5.6l4.2,14.5c0.2,0.6,0.4,1.3,0.6,2.1s0.4,1.7,0.6,2.7c0.1-0.4,0.2-0.9,0.3-1.4
		c0.1-0.5,0.3-1,0.4-1.5s0.3-1,0.4-1.4c0.1-0.5,0.3-0.9,0.4-1.3l4.3-13.8h5.4l-8.9,28H509.4z"/>
	<path fill="#FFFFFF" d="M532.9,289.6c-0.4-0.9-0.7-1.8-1.1-2.7s-0.7-1.7-1-2.6c-0.3-0.8-0.6-1.6-0.9-2.2c-0.2-0.7-0.4-1.2-0.5-1.6
		c0,0.6,0.1,1.2,0.1,1.8c0,0.7,0.1,1.3,0.1,2c0,0.7,0,1.4,0,2.1c0,0.7,0,1.3,0,1.9l0.1,11.9h-5v-27.8h5.7l4.9,11.1
		c0.6,1.5,1.2,3,1.7,4.3c0.5,1.4,0.9,2.5,1.1,3.6c0-0.5-0.1-1.1-0.1-1.8c0-0.7-0.1-1.4-0.1-2.1c0-0.7-0.1-1.4-0.1-2
		c0-0.7,0-1.2,0-1.7l-0.1-11.4h5v27.8h-5.4L532.9,289.6z"/>
</g>
<g>
	<path fill="#FFFFFF" d="M363.4,313.5c-0.2-0.5-0.4-0.9-0.6-1.4c-0.2-0.5-0.4-0.9-0.6-1.4s-0.3-0.8-0.5-1.2
		c-0.1-0.4-0.2-0.7-0.3-0.9l-0.1,0c0.1,0.8,0.1,1.6,0.1,2.5s0,1.7,0.1,2.5l0.1,9.4h-2.3v-17.9h2.7l4.6,9.9c0.2,0.4,0.4,0.8,0.5,1.2
		c0.2,0.5,0.3,0.9,0.5,1.3c0.2,0.4,0.3,0.8,0.4,1.1c0.1,0.3,0.2,0.5,0.2,0.7l0.1-0.1c0-0.1,0-0.4-0.1-0.8c0-0.4-0.1-0.8-0.1-1.4
		s0-1-0.1-1.6c0-0.6,0-1.1,0-1.6l0-8.8h2.3v17.9h-2.5L363.4,313.5z"/>
	<path fill="#FFFFFF" d="M383.6,319.5c-0.2,0.8-0.6,1.5-1.1,2.1c-0.5,0.6-1,1-1.7,1.4s-1.4,0.5-2.2,0.5c-0.8,0-1.5-0.2-2.2-0.5
		s-1.2-0.8-1.6-1.4s-0.8-1.3-1-2.2s-0.4-1.8-0.4-2.9c0-1.1,0.1-2,0.4-2.8s0.6-1.6,1-2.2s1-1.1,1.6-1.4c0.6-0.3,1.4-0.5,2.2-0.5
		c0.9,0,1.7,0.2,2.3,0.5c0.7,0.4,1.2,0.9,1.7,1.5c0.4,0.6,0.8,1.4,1,2.2c0.2,0.8,0.3,1.8,0.3,2.8C384,317.7,383.8,318.6,383.6,319.5
		z M381.3,314.2c-0.1-0.7-0.3-1.2-0.6-1.6s-0.5-0.7-0.9-0.9c-0.3-0.2-0.7-0.3-1.2-0.3c-1,0-1.7,0.4-2.1,1.1c-0.4,0.8-0.6,2-0.6,3.6
		c0,1,0.1,1.8,0.2,2.5c0.1,0.7,0.3,1.2,0.5,1.6c0.2,0.4,0.5,0.7,0.9,0.9s0.8,0.3,1.2,0.3c0.8,0,1.5-0.4,2-1.1c0.5-0.8,0.7-2,0.7-3.7
		C381.5,315.8,381.4,314.9,381.3,314.2z"/>
	<path fill="#FFFFFF" d="M392.1,312c-0.1,0-0.2,0-0.3,0c-0.3,0-0.7,0.1-1,0.2c-0.3,0.1-0.6,0.3-0.8,0.6c-0.2,0.2-0.4,0.5-0.5,0.8
		c-0.1,0.3-0.2,0.7-0.2,1v8.4h-2.2v-9.6c0-0.8,0-1.4-0.1-1.9s-0.2-0.9-0.3-1.3l2.1-0.6c0.1,0.2,0.2,0.6,0.3,0.9
		c0.1,0.4,0.1,0.7,0.1,1.1v0.2c0.9-1.5,2-2.3,3.3-2.3c0.3,0,0.5,0,0.7,0.1l-0.8,2.3C392.3,312.1,392.2,312,392.1,312z"/>
	<path fill="#FFFFFF" d="M404.9,311.7c-0.3,0.1-0.7,0.2-1,0.2c-0.2,0-0.3,0-0.4,0c-0.1,0-0.3-0.1-0.6-0.2c0.3,0.4,0.5,0.8,0.7,1.2
		c0.1,0.4,0.2,0.8,0.2,1.2c0,0.5-0.1,0.9-0.2,1.4c-0.2,0.5-0.4,0.9-0.7,1.3c-0.3,0.4-0.8,0.7-1.3,0.9s-1.2,0.4-2,0.4
		c-0.2,0.1-0.4,0.2-0.6,0.3c-0.2,0.1-0.4,0.2-0.6,0.3c-0.2,0.1-0.3,0.2-0.5,0.4c-0.1,0.1-0.2,0.3-0.2,0.4c0,0.4,0.3,0.6,0.9,0.6h1.8
		c0.8,0,1.4,0.1,2,0.3c0.5,0.2,1,0.4,1.3,0.8c0.3,0.3,0.6,0.7,0.8,1.2c0.2,0.4,0.2,0.9,0.2,1.4c0,0.7-0.1,1.3-0.4,1.9
		c-0.3,0.5-0.6,1-1,1.3c-0.4,0.4-1,0.6-1.6,0.8c-0.6,0.2-1.3,0.3-2,0.3c-1.7,0-3-0.3-3.9-0.9c-0.9-0.6-1.4-1.4-1.4-2.5
		c0-0.3,0-0.5,0.1-0.7c0-0.2,0.1-0.4,0.2-0.6l2.2-0.1c0,0.1-0.1,0.2-0.1,0.4c0,0.2-0.1,0.4-0.1,0.6c0,1.4,1,2.1,2.9,2.1
		c1,0,1.7-0.2,2.2-0.6c0.5-0.4,0.7-0.9,0.7-1.6c0-0.6-0.3-1.1-0.8-1.5c-0.5-0.3-1.4-0.5-2.6-0.5c-0.4,0-0.8,0-1.3,0s-0.8-0.1-1-0.1
		c-0.5-0.1-0.9-0.3-1.2-0.6c-0.3-0.3-0.4-0.7-0.4-1.2c0-0.6,0.2-1.1,0.7-1.4c0.4-0.3,1-0.6,1.7-0.9c-0.9-0.3-1.6-0.8-2.1-1.4
		c-0.5-0.6-0.7-1.4-0.7-2.3c0-0.7,0.1-1.2,0.3-1.8c0.2-0.5,0.5-1,0.9-1.4c0.4-0.4,0.9-0.7,1.4-0.9s1.2-0.3,1.9-0.3
		c0.3,0,0.6,0,0.9,0.1c0.3,0,0.6,0.1,1,0.2c0.3,0.1,0.6,0.2,0.9,0.3c0.3,0.1,0.6,0.1,0.9,0.1c0.4,0,0.7-0.1,1-0.2
		c0.3-0.1,0.6-0.3,0.9-0.6l1.1,1.5C405.6,311.4,405.3,311.6,404.9,311.7z M399.2,311.5c-1.4,0-2.2,0.8-2.2,2.5
		c0,1.6,0.7,2.4,2.2,2.4c1.4,0,2.2-0.8,2.2-2.5C401.4,312.3,400.6,311.5,399.2,311.5z"/>
	<path fill="#FFFFFF" d="M409.4,317.4c0,1.2,0.2,2,0.5,2.6c0.3,0.5,0.7,0.9,1.2,1.2c0.5,0.3,1,0.4,1.6,0.4c1.1,0,2.1-0.4,2.9-1.2
		l0.8,1.4c-1.2,1.1-2.5,1.6-4.1,1.6c-0.8,0-1.6-0.2-2.2-0.5s-1.2-0.8-1.7-1.4c-0.5-0.6-0.8-1.3-1.1-2.2c-0.3-0.8-0.4-1.8-0.4-2.9
		c0-1.1,0.1-2.1,0.3-2.9c0.2-0.8,0.6-1.5,1.1-2.2c0.9-1.2,2.1-1.8,3.6-1.8c1.3,0,2.4,0.5,3.3,1.4c0.3,0.3,0.5,0.6,0.7,0.9
		c0.2,0.3,0.3,0.7,0.5,1.2c0.1,0.4,0.2,0.9,0.3,1.5s0.1,1.2,0.1,2v0.4h-7.2V317.4z M413.7,312.3c-0.2-0.3-0.4-0.5-0.7-0.6
		s-0.6-0.3-1-0.3c-0.9,0-1.5,0.3-1.9,1c-0.4,0.7-0.6,1.6-0.6,2.8h5C414.4,314,414.1,313,413.7,312.3z"/>
	<path fill="#FFFFFF" d="M427.5,320.8c-0.2,0.5-0.5,1-1,1.4c-0.4,0.4-0.9,0.7-1.5,0.9c-0.6,0.2-1.2,0.3-1.9,0.3
		c-0.7,0-1.5-0.1-2.3-0.4s-1.5-0.6-2.2-1l0.8-1.7c0.6,0.3,1.2,0.6,1.9,0.9c0.7,0.3,1.3,0.4,2,0.4s1.2-0.2,1.6-0.6s0.6-0.9,0.6-1.5
		c0-0.6-0.2-1-0.5-1.3c-0.3-0.3-0.8-0.6-1.5-0.7l-1.5-0.3c-1.9-0.4-2.9-1.6-2.9-3.6c0-0.6,0.1-1.1,0.3-1.6s0.5-0.9,0.9-1.3
		c0.4-0.4,0.9-0.6,1.4-0.8c0.5-0.2,1.1-0.3,1.8-0.3c0.7,0,1.4,0.1,2.1,0.3c0.6,0.2,1.2,0.5,1.7,0.8l-0.7,1.7
		c-0.6-0.3-1.1-0.5-1.5-0.7c-0.5-0.2-0.9-0.2-1.4-0.2c-0.6,0-1.1,0.2-1.5,0.5c-0.4,0.4-0.6,0.8-0.6,1.4c0,0.5,0.1,0.8,0.4,1.1
		s0.7,0.5,1.3,0.6l1.5,0.4c1.1,0.3,1.9,0.7,2.3,1.4c0.5,0.6,0.7,1.4,0.7,2.3C427.9,319.7,427.8,320.3,427.5,320.8z"/>
	<path fill="#FFFFFF" d="M431,307.5c0-0.7,0-1.2-0.1-1.7c-0.1-0.5-0.1-0.9-0.2-1.3l2.2-0.6c0.1,0.3,0.1,0.8,0.2,1.3
		c0.1,0.5,0.1,1,0.1,1.6v16.2H431V307.5z M433.4,315.7l4-5.6h2.7l-4.3,5.5l5.3,7.5h-2.8L433.4,315.7z"/>
	<path fill="#FFFFFF" d="M449.3,321.7c-0.1,0.1-0.2,0.3-0.4,0.4c-0.2,0.2-0.4,0.4-0.7,0.6c-0.3,0.2-0.6,0.4-1,0.5s-0.8,0.2-1.4,0.2
		c-1.2,0-2.1-0.3-2.8-1c-0.7-0.7-1-1.6-1-2.8c0-1.5,0.5-2.7,1.6-3.5c1.1-0.8,2.6-1.2,4.5-1.2h0.6c0.1,0,0.2,0,0.2,0v-0.9
		c0-0.4,0-0.7-0.1-1.1c0-0.3-0.1-0.6-0.3-0.8c-0.1-0.2-0.3-0.4-0.6-0.5s-0.6-0.2-1-0.2c-0.6,0-1.3,0.1-2,0.4c-0.7,0.3-1.2,0.6-1.7,1
		l-1-1.7c0.3-0.2,0.6-0.4,0.9-0.6s0.7-0.4,1.1-0.6c0.4-0.2,0.9-0.3,1.3-0.4c0.5-0.1,1-0.2,1.6-0.2c0.9,0,1.6,0.2,2.2,0.5
		c0.6,0.3,1,0.9,1.2,1.6c0.1,0.3,0.2,0.6,0.2,0.9c0,0.3,0,0.8,0,1.4c0,0.2,0,0.5,0,0.9c0,0.4,0,0.7,0,1.2c0,0.4,0,0.9,0,1.4
		s0,0.9,0,1.4c0,0.5,0,0.8,0,1.2c0,0.3,0.1,0.6,0.1,0.8c0.1,0.2,0.2,0.5,0.3,0.6s0.3,0.4,0.6,0.5l-1.1,1.6
		C450.1,323.3,449.5,322.7,449.3,321.7z M448.5,316.6c-0.1,0-0.2,0-0.3,0c-0.8,0-1.5,0.1-2,0.2c-0.5,0.2-0.9,0.4-1.1,0.7
		c-0.2,0.3-0.4,0.6-0.5,0.9c-0.1,0.3-0.1,0.6-0.1,1.1c0,0.7,0.2,1.3,0.5,1.7c0.3,0.4,0.8,0.6,1.4,0.6c0.5,0,1-0.2,1.4-0.5
		c0.4-0.3,0.8-0.7,1.1-1.3l0.1-3.4C448.7,316.7,448.6,316.6,448.5,316.6z"/>
	<path fill="#FFFFFF" d="M460.1,312c-0.1,0-0.2,0-0.3,0c-0.3,0-0.7,0.1-1,0.2c-0.3,0.1-0.6,0.3-0.8,0.6c-0.2,0.2-0.4,0.5-0.5,0.8
		s-0.2,0.7-0.2,1v8.4h-2.2v-9.6c0-0.8,0-1.4-0.1-1.9s-0.2-0.9-0.3-1.3l2.1-0.6c0.1,0.2,0.2,0.6,0.3,0.9c0.1,0.4,0.1,0.7,0.1,1.1v0.2
		c0.9-1.5,2-2.3,3.3-2.3c0.3,0,0.5,0,0.7,0.1l-0.8,2.3C460.3,312.1,460.2,312,460.1,312z"/>
	<path fill="#FFFFFF" d="M465.8,311.7v7.9c0,0.8,0.1,1.4,0.3,1.7c0.2,0.3,0.6,0.4,1.2,0.4c0.4,0,0.8-0.1,1.1-0.3l0.3,1.4
		c-0.7,0.4-1.4,0.5-2.2,0.5c-0.4,0-0.8-0.1-1.2-0.2s-0.7-0.3-0.9-0.5c-0.1-0.1-0.2-0.2-0.3-0.4c-0.1-0.1-0.2-0.3-0.3-0.4
		c-0.1-0.2-0.1-0.4-0.2-0.7s-0.1-0.7-0.1-1.1v-8.4h-1.4V310h1.4c0-0.5,0-1.1,0-1.7c0-0.6,0.1-1.2,0.1-1.7l2.3-0.6
		c0,0.2-0.1,0.5-0.1,0.8c0,0.3,0,0.6-0.1,1c0,0.3,0,0.7,0,1.1s0,0.7,0,1h2.9l-0.6,1.7H465.8z"/>
</g>
</svg>
