<?xml version="1.0" encoding="utf-8"?>
<!-- Generator: Adobe Illustrator 18.0.0, SVG Export Plug-In . SVG Version: 6.00 Build 0)  -->
<!DOCTYPE svg PUBLIC "-//W3C//DTD SVG 1.1//EN" "http://www.w3.org/Graphics/SVG/1.1/DTD/svg11.dtd">
<svg version="1.1" id="Layer_1" xmlns="http://www.w3.org/2000/svg" xmlns:xlink="http://www.w3.org/1999/xlink" x="0px" y="0px"
	 viewBox="0 0 841.9 595.3" enable-background="new 0 0 841.9 595.3" xml:space="preserve" style="background: grey">
<g>
	<polygon opacity="0.8" fill="#FFFFFF" points="285.4,322.7 265.9,330 265.9,272.6 285.4,265.3 	"/>
	<polygon opacity="0.4" fill="#FFFFFF" points="330.6,322.7 311,330 311,272.6 330.6,265.3 	"/>
	<polygon opacity="0.6" fill="#FFFFFF" points="289,322.7 307.5,330 307.5,272.6 289,265.3 	"/>
	<g>
		<path fill="#FFFFFF" d="M355.2,277v6.2h6.5v4.6h-6.5v12.4H350v-27.8h13.9l-0.6,4.6H355.2z"/>
		<path fill="#FFFFFF" d="M377.6,293.6h-7.5l-1.8,6.6h-5.4l8.4-27.9h5.6l8.1,27.9h-5.5L377.6,293.6z M376.2,288.5
			c-0.1-0.3-0.2-0.8-0.3-1.3c-0.1-0.5-0.3-1.1-0.4-1.8c-0.2-0.7-0.3-1.3-0.5-2c-0.1-0.3-0.2-0.7-0.3-1.3l-0.3-1.6
			c-0.1-0.6-0.2-1-0.3-1.4l-0.1-0.6l-0.1,0.6c-0.1,0.3-0.2,0.8-0.3,1.3c-0.1,0.5-0.3,1.1-0.4,1.8c-0.1,0.6-0.3,1.2-0.4,1.7
			c-0.2,1-0.5,1.9-0.7,2.6c-0.2,0.7-0.4,1.6-0.7,2.5h5L376.2,288.5z"/>
		<path fill="#FFFFFF" d="M404.3,295.3c-0.5,1.2-1.2,2.1-2.1,3c-0.9,0.8-2,1.5-3.3,1.9c-1.3,0.4-2.8,0.7-4.3,0.7
			c-1.5,0-3-0.2-4.5-0.7c-1.5-0.4-2.9-1.1-4.3-1.8l1.9-4.3c1.2,0.7,2.3,1.2,3.4,1.6c1.1,0.4,2.3,0.6,3.6,0.6c3,0,4.5-1.3,4.5-3.8
			c0-1.7-1.1-2.9-3.4-3.6L393,288c-1.3-0.4-2.3-0.8-3.1-1.4c-0.8-0.6-1.5-1.3-1.9-2.1c-0.7-1.3-1.1-2.7-1.1-4.2
			c0-1.3,0.2-2.5,0.7-3.5c0.4-1.1,1.1-2,1.9-2.7c0.8-0.8,1.8-1.3,2.9-1.8c1.1-0.4,2.4-0.6,3.7-0.6c1.6,0,3.1,0.2,4.6,0.7
			c1.5,0.5,2.8,1.2,3.9,2l-2.4,4c-1.2-0.8-2.2-1.3-3.2-1.6c-0.9-0.3-1.9-0.5-2.8-0.5c-1.1,0-1.9,0.3-2.6,0.9s-1,1.4-1,2.3
			c0,0.7,0.2,1.3,0.6,1.7s1.1,0.8,2.3,1.1l3.1,0.9c2.1,0.6,3.8,1.6,4.9,3c1.1,1.4,1.6,3.2,1.6,5.3
			C405.1,292.8,404.8,294.1,404.3,295.3z"/>
		<path fill="#FFFFFF" d="M417.6,277v23.2h-5.2V277h-6.3v-4.6h18.4l-0.8,4.6H417.6z"/>
		<path fill="#FFFFFF" d="M446.2,285.4c0-0.9-0.1-1.7-0.1-2.4c0-0.7-0.1-1.5-0.1-2.2c-0.1,0.8-0.3,1.5-0.4,2.1
			c-0.1,0.6-0.3,1.3-0.5,2.2l-4.1,15.2h-4.4l-3.6-14.6c-0.2-0.7-0.4-1.5-0.6-2.4c-0.2-0.9-0.4-1.7-0.5-2.5c0,0.8,0,1.6-0.1,2.4
			c0,0.8-0.1,1.7-0.1,2.5l-0.9,14.5h-5.1l2.4-27.8h6.6l3.4,13.9c0.1,0.5,0.2,1,0.3,1.3c0.1,0.4,0.2,0.7,0.2,1.1
			c0.1,0.3,0.1,0.7,0.2,1c0,0.3,0.1,0.7,0.1,1c0.1-0.7,0.3-1.4,0.4-2.2c0.1-0.7,0.3-1.5,0.5-2.4l3.5-13.8h6.6l2.3,27.8h-5
			L446.2,285.4z"/>
		<path fill="#FFFFFF" d="M456.6,272.4h14.6l-0.7,4.6h-8.8v6.4h7.3v4.6h-7.3v7.4h9.7v4.8h-14.9V272.4z"/>
		<path fill="#FFFFFF" d="M486.7,299c-0.2-0.3-0.4-0.7-0.5-1c-0.2-0.3-0.4-0.7-0.6-1.1c-0.2-0.4-0.4-0.8-0.7-1.3
			c-0.6-1.3-1.2-2.3-1.6-3.1s-0.8-1.5-1.1-2s-0.6-0.9-0.8-1.1c-0.2-0.3-0.5-0.4-0.7-0.5c-0.2-0.1-0.5-0.2-0.8-0.2v11.6h-5v-27.8h9.5
			c1.1,0,2.1,0.2,3.1,0.6c0.9,0.4,1.7,0.9,2.4,1.7c0.7,0.7,1.2,1.6,1.5,2.6s0.5,2.1,0.5,3.3c0,1-0.1,2-0.4,2.9s-0.7,1.7-1.2,2.4
			c-0.5,0.7-1.1,1.2-1.8,1.7c-0.7,0.4-1.4,0.6-2.2,0.7c0.3,0.2,0.5,0.4,0.6,0.6c0.1,0.2,0.3,0.4,0.5,0.6c0.3,0.4,0.7,1,1.2,1.9
			c0.5,0.9,1,1.8,1.6,2.8c0.6,1,1.1,2,1.6,2.9c0.5,0.9,0.9,1.7,1.2,2.3c0.3,0.6,0.5,0.9,0.5,0.9h-6.1
			C487.1,299.8,486.8,299.4,486.7,299z M484.7,277.2c-0.3-0.1-0.7-0.2-1.2-0.3s-1.1-0.1-1.7-0.1h-1.9v7.6h1.8c1.1,0,2-0.1,2.5-0.2
			s1-0.4,1.4-0.7c0.7-0.7,1-1.6,1-2.8C486.5,278.8,485.9,277.7,484.7,277.2z"/>
		<path fill="#FFFFFF" d="M501.8,285.7v14.5h-5.3v-27.8h5.3v12.7l7.3-12.7h6.3l-8.2,12.9l9.1,14.9h-6.8L501.8,285.7z"/>
		<path fill="#FFFFFF" d="M518.1,272.4h14.6L532,277h-8.8v6.4h7.3v4.6h-7.3v7.4h9.7v4.8h-14.9V272.4z"/>
		<path fill="#FFFFFF" d="M548.1,299c-0.2-0.3-0.4-0.7-0.5-1c-0.2-0.3-0.4-0.7-0.6-1.1c-0.2-0.4-0.4-0.8-0.7-1.3
			c-0.6-1.3-1.2-2.3-1.6-3.1s-0.8-1.5-1.1-2s-0.6-0.9-0.8-1.1c-0.2-0.3-0.5-0.4-0.7-0.5c-0.2-0.1-0.5-0.2-0.8-0.2v11.6h-5v-27.8h9.5
			c1.1,0,2.1,0.2,3.1,0.6c0.9,0.4,1.7,0.9,2.4,1.7c0.7,0.7,1.2,1.6,1.5,2.6s0.5,2.1,0.5,3.3c0,1-0.1,2-0.4,2.9s-0.7,1.7-1.2,2.4
			c-0.5,0.7-1.1,1.2-1.8,1.7c-0.7,0.4-1.4,0.6-2.2,0.7c0.3,0.2,0.5,0.4,0.6,0.6c0.1,0.2,0.3,0.4,0.5,0.6c0.3,0.4,0.7,1,1.2,1.9
			c0.5,0.9,1,1.8,1.6,2.8c0.6,1,1.1,2,1.6,2.9c0.5,0.9,0.9,1.7,1.2,2.3c0.3,0.6,0.5,0.9,0.5,0.9h-6.1
			C548.5,299.8,548.3,299.4,548.1,299z M546.1,277.2c-0.3-0.1-0.7-0.2-1.2-0.3s-1.1-0.1-1.7-0.1h-1.9v7.6h1.8c1.1,0,2-0.1,2.5-0.2
			s1-0.4,1.4-0.7c0.7-0.7,1-1.6,1-2.8C548,278.8,547.4,277.7,546.1,277.2z"/>
	</g>
	<g>
		<path fill="#FFFFFF" d="M353.8,313.6c-0.2-0.5-0.4-0.9-0.6-1.4c-0.2-0.5-0.4-0.9-0.6-1.4s-0.3-0.8-0.5-1.2
			c-0.1-0.4-0.2-0.7-0.3-0.9l-0.1,0c0.1,0.8,0.1,1.6,0.1,2.5s0,1.7,0.1,2.5l0.1,9.4h-2.3v-17.9h2.7l4.6,9.9c0.2,0.4,0.4,0.8,0.5,1.2
			c0.2,0.5,0.3,0.9,0.5,1.3c0.2,0.4,0.3,0.8,0.4,1.1c0.1,0.3,0.2,0.5,0.2,0.7l0.1-0.1c0-0.1,0-0.4-0.1-0.8c0-0.4-0.1-0.8-0.1-1.4
			s0-1-0.1-1.6c0-0.6,0-1.1,0-1.6l0-8.8h2.3v17.9h-2.5L353.8,313.6z"/>
		<path fill="#FFFFFF" d="M374,319.5c-0.2,0.8-0.6,1.5-1.1,2.1c-0.5,0.6-1,1-1.7,1.4s-1.4,0.5-2.2,0.5c-0.8,0-1.5-0.2-2.2-0.5
			s-1.2-0.8-1.6-1.4s-0.8-1.3-1-2.2s-0.4-1.8-0.4-2.9c0-1.1,0.1-2,0.4-2.8s0.6-1.6,1-2.2s1-1.1,1.6-1.4c0.6-0.3,1.4-0.5,2.2-0.5
			c0.9,0,1.7,0.2,2.3,0.5c0.7,0.4,1.2,0.9,1.7,1.5c0.4,0.6,0.8,1.4,1,2.2c0.2,0.8,0.3,1.8,0.3,2.8
			C374.3,317.7,374.2,318.6,374,319.5z M371.6,314.2c-0.1-0.7-0.3-1.2-0.6-1.6s-0.5-0.7-0.9-0.9c-0.3-0.2-0.7-0.3-1.2-0.3
			c-1,0-1.7,0.4-2.1,1.1c-0.4,0.8-0.6,2-0.6,3.6c0,1,0.1,1.8,0.2,2.5c0.1,0.7,0.3,1.2,0.5,1.6c0.2,0.4,0.5,0.7,0.9,0.9
			s0.8,0.3,1.2,0.3c0.8,0,1.5-0.4,2-1.1c0.5-0.8,0.7-2,0.7-3.7C371.8,315.8,371.8,314.9,371.6,314.2z"/>
		<path fill="#FFFFFF" d="M382.5,312c-0.1,0-0.2,0-0.3,0c-0.3,0-0.7,0.1-1,0.2c-0.3,0.1-0.6,0.3-0.8,0.6c-0.2,0.2-0.4,0.5-0.5,0.8
			c-0.1,0.3-0.2,0.7-0.2,1v8.4h-2.2v-9.6c0-0.8,0-1.4-0.1-1.9s-0.2-0.9-0.3-1.3l2.1-0.6c0.1,0.2,0.2,0.6,0.3,0.9
			c0.1,0.4,0.1,0.7,0.1,1.1v0.2c0.9-1.5,2-2.3,3.3-2.3c0.3,0,0.5,0,0.7,0.1l-0.8,2.3C382.7,312.1,382.6,312,382.5,312z"/>
		<path fill="#FFFFFF" d="M395.3,311.7c-0.3,0.1-0.7,0.2-1,0.2c-0.2,0-0.3,0-0.4,0c-0.1,0-0.3-0.1-0.6-0.2c0.3,0.4,0.5,0.8,0.7,1.2
			c0.1,0.4,0.2,0.8,0.2,1.2c0,0.5-0.1,0.9-0.2,1.4c-0.2,0.5-0.4,0.9-0.7,1.3c-0.3,0.4-0.8,0.7-1.3,0.9s-1.2,0.4-2,0.4
			c-0.2,0.1-0.4,0.2-0.6,0.3c-0.2,0.1-0.4,0.2-0.6,0.3c-0.2,0.1-0.3,0.2-0.5,0.4c-0.1,0.1-0.2,0.3-0.2,0.4c0,0.4,0.3,0.6,0.9,0.6
			h1.8c0.8,0,1.4,0.1,2,0.3c0.5,0.2,1,0.4,1.3,0.8c0.3,0.3,0.6,0.7,0.8,1.2c0.2,0.4,0.2,0.9,0.2,1.4c0,0.7-0.1,1.3-0.4,1.9
			c-0.3,0.5-0.6,1-1,1.3c-0.4,0.4-1,0.6-1.6,0.8c-0.6,0.2-1.3,0.3-2,0.3c-1.7,0-3-0.3-3.9-0.9c-0.9-0.6-1.4-1.4-1.4-2.5
			c0-0.3,0-0.5,0.1-0.7c0-0.2,0.1-0.4,0.2-0.6l2.2-0.1c0,0.1-0.1,0.2-0.1,0.4c0,0.2-0.1,0.4-0.1,0.6c0,1.4,1,2.1,2.9,2.1
			c1,0,1.7-0.2,2.2-0.6c0.5-0.4,0.7-0.9,0.7-1.6c0-0.6-0.3-1.1-0.8-1.5c-0.5-0.3-1.4-0.5-2.6-0.5c-0.4,0-0.8,0-1.3,0s-0.8-0.1-1-0.1
			c-0.5-0.1-0.9-0.3-1.2-0.6c-0.3-0.3-0.4-0.7-0.4-1.2c0-0.6,0.2-1.1,0.7-1.4c0.4-0.3,1-0.6,1.7-0.9c-0.9-0.3-1.6-0.8-2.1-1.4
			c-0.5-0.6-0.7-1.4-0.7-2.3c0-0.7,0.1-1.2,0.3-1.8c0.2-0.5,0.5-1,0.9-1.4c0.4-0.4,0.9-0.7,1.4-0.9s1.2-0.3,1.9-0.3
			c0.3,0,0.6,0,0.9,0.1c0.3,0,0.6,0.1,1,0.2c0.3,0.1,0.6,0.2,0.9,0.3c0.3,0.1,0.6,0.1,0.9,0.1c0.4,0,0.7-0.1,1-0.2
			c0.3-0.1,0.6-0.3,0.9-0.6l1.1,1.5C396,311.4,395.6,311.6,395.3,311.7z M389.5,311.5c-1.4,0-2.2,0.8-2.2,2.5c0,1.6,0.7,2.4,2.2,2.4
			c1.4,0,2.2-0.8,2.2-2.5C391.7,312.3,391,311.5,389.5,311.5z"/>
		<path fill="#FFFFFF" d="M399.8,317.4c0,1.2,0.2,2,0.5,2.6c0.3,0.5,0.7,0.9,1.2,1.2c0.5,0.3,1,0.4,1.6,0.4c1.1,0,2.1-0.4,2.9-1.2
			l0.8,1.4c-1.2,1.1-2.5,1.6-4.1,1.6c-0.8,0-1.6-0.2-2.2-0.5s-1.2-0.8-1.7-1.4c-0.5-0.6-0.8-1.3-1.1-2.2c-0.3-0.8-0.4-1.8-0.4-2.9
			c0-1.1,0.1-2.1,0.3-2.9c0.2-0.8,0.6-1.5,1.1-2.2c0.9-1.2,2.1-1.8,3.6-1.8c1.3,0,2.4,0.5,3.3,1.4c0.3,0.3,0.5,0.6,0.7,0.9
			c0.2,0.3,0.3,0.7,0.5,1.2c0.1,0.4,0.2,0.9,0.3,1.5s0.1,1.2,0.1,2v0.4h-7.2V317.4z M404,312.3c-0.2-0.3-0.4-0.5-0.7-0.6
			s-0.6-0.3-1-0.3c-0.9,0-1.5,0.3-1.9,1c-0.4,0.7-0.6,1.6-0.6,2.8h5C404.8,314,404.5,313,404,312.3z"/>
		<path fill="#FFFFFF" d="M417.9,320.8c-0.2,0.5-0.5,1-1,1.4c-0.4,0.4-0.9,0.7-1.5,0.9c-0.6,0.2-1.2,0.3-1.9,0.3
			c-0.7,0-1.5-0.1-2.3-0.4s-1.5-0.6-2.2-1l0.8-1.7c0.6,0.3,1.2,0.6,1.9,0.9c0.7,0.3,1.3,0.4,2,0.4s1.2-0.2,1.6-0.6s0.6-0.9,0.6-1.5
			c0-0.6-0.2-1-0.5-1.3c-0.3-0.3-0.8-0.6-1.5-0.7l-1.5-0.3c-1.9-0.4-2.9-1.6-2.9-3.6c0-0.6,0.1-1.1,0.3-1.6s0.5-0.9,0.9-1.3
			c0.4-0.4,0.9-0.6,1.4-0.8s1.1-0.3,1.8-0.3c0.7,0,1.4,0.1,2.1,0.3s1.2,0.5,1.7,0.8l-0.7,1.7c-0.6-0.3-1.1-0.5-1.5-0.7
			c-0.5-0.2-0.9-0.2-1.4-0.2c-0.6,0-1.1,0.2-1.5,0.5c-0.4,0.4-0.6,0.8-0.6,1.4c0,0.5,0.1,0.8,0.4,1.1c0.2,0.3,0.7,0.5,1.3,0.6
			l1.5,0.4c1.1,0.3,1.9,0.7,2.3,1.4s0.7,1.4,0.7,2.3C418.3,319.7,418.1,320.3,417.9,320.8z"/>
		<path fill="#FFFFFF" d="M421.4,307.5c0-0.7,0-1.2-0.1-1.7c-0.1-0.5-0.1-0.9-0.2-1.3l2.2-0.6c0.1,0.3,0.1,0.8,0.2,1.3
			c0.1,0.5,0.1,1,0.1,1.6v16.2h-2.2V307.5z M423.8,315.7l4-5.6h2.7l-4.3,5.5l5.3,7.5h-2.8L423.8,315.7z"/>
		<path fill="#FFFFFF" d="M439.6,321.7c-0.1,0.1-0.2,0.3-0.4,0.4c-0.2,0.2-0.4,0.4-0.7,0.6c-0.3,0.2-0.6,0.4-1,0.5
			c-0.4,0.1-0.8,0.2-1.4,0.2c-1.2,0-2.1-0.3-2.8-1c-0.7-0.7-1-1.6-1-2.8c0-1.5,0.5-2.7,1.6-3.5c1.1-0.8,2.6-1.2,4.5-1.2h0.6
			c0.1,0,0.2,0,0.2,0v-0.9c0-0.4,0-0.7-0.1-1.1c0-0.3-0.1-0.6-0.3-0.8c-0.1-0.2-0.3-0.4-0.6-0.5s-0.6-0.2-1-0.2
			c-0.6,0-1.3,0.1-2,0.4c-0.7,0.3-1.2,0.6-1.7,1l-1-1.7c0.3-0.2,0.6-0.4,0.9-0.6s0.7-0.4,1.1-0.6c0.4-0.2,0.9-0.3,1.3-0.4
			s1-0.2,1.6-0.2c0.9,0,1.6,0.2,2.2,0.5c0.6,0.3,1,0.9,1.2,1.6c0.1,0.3,0.2,0.6,0.2,0.9c0,0.3,0,0.8,0,1.4c0,0.2,0,0.5,0,0.9
			c0,0.4,0,0.7,0,1.2c0,0.4,0,0.9,0,1.4c0,0.5,0,0.9,0,1.4c0,0.5,0,0.8,0,1.2c0,0.3,0.1,0.6,0.1,0.8c0.1,0.2,0.2,0.5,0.3,0.6
			s0.3,0.4,0.6,0.5l-1.1,1.6C440.5,323.3,439.9,322.7,439.6,321.7z M438.9,316.6c-0.1,0-0.2,0-0.3,0c-0.8,0-1.5,0.1-2,0.2
			c-0.5,0.2-0.9,0.4-1.1,0.7c-0.2,0.3-0.4,0.6-0.5,0.9c-0.1,0.3-0.1,0.6-0.1,1.1c0,0.7,0.2,1.3,0.5,1.7c0.3,0.4,0.8,0.6,1.4,0.6
			c0.5,0,1-0.2,1.4-0.5c0.5-0.3,0.8-0.7,1.1-1.3l0.1-3.4C439.1,316.7,439,316.6,438.9,316.6z"/>
		<path fill="#FFFFFF" d="M450.5,312c-0.1,0-0.2,0-0.3,0c-0.3,0-0.7,0.1-1,0.2c-0.3,0.1-0.6,0.3-0.8,0.6c-0.2,0.2-0.4,0.5-0.5,0.8
			c-0.1,0.3-0.2,0.7-0.2,1v8.4h-2.2v-9.6c0-0.8,0-1.4-0.1-1.9s-0.2-0.9-0.3-1.3l2.1-0.6c0.1,0.2,0.2,0.6,0.3,0.9
			c0.1,0.4,0.1,0.7,0.1,1.1v0.2c0.9-1.5,2-2.3,3.3-2.3c0.3,0,0.5,0,0.7,0.1l-0.8,2.3C450.7,312.1,450.6,312,450.5,312z"/>
		<path fill="#FFFFFF" d="M456.2,311.7v7.9c0,0.8,0.1,1.4,0.3,1.7c0.2,0.3,0.6,0.4,1.2,0.4c0.4,0,0.8-0.1,1.1-0.3l0.3,1.4
			c-0.7,0.4-1.4,0.5-2.2,0.5c-0.4,0-0.8-0.1-1.2-0.2c-0.4-0.1-0.7-0.3-0.9-0.5c-0.1-0.1-0.2-0.2-0.3-0.4c-0.1-0.1-0.2-0.3-0.3-0.4
			c-0.1-0.2-0.1-0.4-0.2-0.7s-0.1-0.7-0.1-1.1v-8.4h-1.4V310h1.4c0-0.5,0-1.1,0-1.7c0-0.6,0.1-1.2,0.1-1.7l2.3-0.6
			c0,0.2-0.1,0.5-0.1,0.8c0,0.3,0,0.6-0.1,1c0,0.3,0,0.7,0,1.1c0,0.4,0,0.7,0,1h2.9l-0.6,1.7H456.2z"/>
	</g>
</g>
</svg>
