<?xml version="1.0" encoding="utf-8"?>
<!-- Generator: Adobe Illustrator 18.0.0, SVG Export Plug-In . SVG Version: 6.00 Build 0)  -->
<!DOCTYPE svg PUBLIC "-//W3C//DTD SVG 1.1//EN" "http://www.w3.org/Graphics/SVG/1.1/DTD/svg11.dtd">
<svg version="1.1" id="Layer_1" xmlns="http://www.w3.org/2000/svg" xmlns:xlink="http://www.w3.org/1999/xlink" x="0px" y="0px"
	 viewBox="0 0 841.9 595.3" enable-background="new 0 0 841.9 595.3" xml:space="preserve" style="background: grey">
<g>
	<polygon opacity="0.8" fill="#FFFFFF" points="198,322.7 178.5,330 178.5,272.6 198,265.3 	"/>
	<polygon opacity="0.4" fill="#FFFFFF" points="243.2,322.7 223.7,330 223.7,272.6 243.2,265.3 	"/>
	<polygon opacity="0.6" fill="#FFFFFF" points="201.6,322.7 220.1,330 220.1,272.6 201.6,265.3 	"/>
	<g>
		<path fill="#FFFFFF" d="M262.7,300.2v-27.8h5.3v23.2h9.2l-0.9,4.6H262.7z"/>
		<path fill="#FFFFFF" d="M297.5,293.8c0,0.3-0.1,0.6-0.1,0.8c-0.1,0.3-0.1,0.5-0.2,0.8c-0.2,0.6-0.5,1.1-0.9,1.8s-1,1.2-1.7,1.7
			c-0.7,0.5-1.6,0.9-2.6,1.3c-1,0.3-2.2,0.5-3.6,0.5c-2,0-3.7-0.3-5.1-0.9c-1.4-0.6-2.4-1.6-3.2-2.8c-0.2-0.3-0.4-0.7-0.6-1
			c-0.1-0.3-0.3-0.7-0.3-1.1c-0.1-0.4-0.1-0.9-0.2-1.4s-0.1-1.1-0.1-1.7v-19.4h5.3v18.3c0,0.9,0,1.5,0.1,2.1
			c0.1,0.5,0.2,0.9,0.3,1.2c0.6,1.3,1.8,1.9,3.5,1.9c1.1,0,2-0.3,2.7-0.9c0.7-0.6,1.1-1.4,1.2-2.4c0-0.1,0-0.3,0.1-0.4
			c0-0.2,0-0.3,0-0.4v-19.4h5.2v20.4C297.5,293.2,297.5,293.5,297.5,293.8z"/>
		<path fill="#FFFFFF" d="M307.7,277v6.2h6.5v4.6h-6.5v12.4h-5.2v-27.8h13.9l-0.6,4.6H307.7z"/>
		<path fill="#FFFFFF" d="M327.2,277v23.2H322V277h-6.3v-4.6h18.4l-0.8,4.6H327.2z"/>
		<path fill="#FFFFFF" d="M341.2,277v6.2h6.5v4.6h-6.5v12.4h-5.2v-27.8H350l-0.6,4.6H341.2z"/>
		<path fill="#FFFFFF" d="M363.6,293.6h-7.5l-1.8,6.6h-5.4l8.4-27.9h5.6l8.1,27.9h-5.5L363.6,293.6z M362.2,288.5
			c-0.1-0.3-0.2-0.8-0.3-1.3c-0.1-0.5-0.3-1.1-0.4-1.8c-0.2-0.7-0.3-1.3-0.5-2c-0.1-0.3-0.2-0.7-0.3-1.3l-0.3-1.6
			c-0.1-0.6-0.2-1-0.3-1.4l-0.1-0.6l-0.1,0.6c-0.1,0.3-0.2,0.8-0.3,1.3c-0.1,0.5-0.3,1.1-0.4,1.8c-0.1,0.6-0.3,1.2-0.4,1.7
			c-0.2,1-0.5,1.9-0.7,2.6c-0.2,0.7-0.4,1.6-0.7,2.5h5L362.2,288.5z"/>
		<path fill="#FFFFFF" d="M385,299c-0.2-0.3-0.4-0.7-0.5-1c-0.2-0.3-0.4-0.7-0.6-1.1c-0.2-0.4-0.4-0.8-0.7-1.3
			c-0.6-1.3-1.2-2.3-1.6-3.1s-0.8-1.5-1.1-2s-0.6-0.9-0.8-1.1c-0.2-0.3-0.5-0.4-0.7-0.5c-0.2-0.1-0.5-0.2-0.8-0.2v11.6h-5v-27.8h9.5
			c1.1,0,2.1,0.2,3.1,0.6c0.9,0.4,1.7,0.9,2.4,1.7c0.7,0.7,1.2,1.6,1.5,2.6s0.5,2.1,0.5,3.3c0,1-0.1,2-0.4,2.9s-0.7,1.7-1.2,2.4
			c-0.5,0.7-1.1,1.2-1.8,1.7c-0.7,0.4-1.4,0.6-2.2,0.7c0.3,0.2,0.5,0.4,0.6,0.6c0.1,0.2,0.3,0.4,0.5,0.6c0.3,0.4,0.7,1,1.2,1.9
			c0.5,0.9,1,1.8,1.6,2.8c0.6,1,1.1,2,1.6,2.9c0.5,0.9,0.9,1.7,1.2,2.3c0.3,0.6,0.5,0.9,0.5,0.9h-6.1
			C385.4,299.8,385.2,299.3,385,299z M383,277.2c-0.3-0.1-0.7-0.2-1.2-0.3s-1.1-0.1-1.7-0.1h-1.9v7.6h1.8c1.1,0,2-0.1,2.5-0.2
			s1-0.4,1.4-0.7c0.7-0.7,1-1.6,1-2.8C384.9,278.8,384.3,277.7,383,277.2z"/>
		<path fill="#FFFFFF" d="M403.3,277v23.2h-5.2V277h-6.3v-4.6h18.4l-0.8,4.6H403.3z"/>
		<path fill="#FFFFFF" d="M428.8,295.3c-0.5,1.2-1.2,2.1-2.1,3c-0.9,0.8-2,1.5-3.3,1.9c-1.3,0.4-2.8,0.7-4.3,0.7
			c-1.5,0-3-0.2-4.5-0.7c-1.5-0.4-2.9-1.1-4.3-1.8l1.9-4.3c1.2,0.7,2.3,1.2,3.4,1.6c1.1,0.4,2.3,0.6,3.6,0.6c3,0,4.5-1.3,4.5-3.8
			c0-1.7-1.1-2.9-3.4-3.6l-2.8-0.8c-1.3-0.4-2.3-0.8-3.1-1.4c-0.8-0.6-1.5-1.3-1.9-2.1c-0.7-1.3-1.1-2.7-1.1-4.2
			c0-1.3,0.2-2.5,0.7-3.5c0.4-1.1,1.1-2,1.9-2.7c0.8-0.8,1.8-1.3,2.9-1.8c1.1-0.4,2.4-0.6,3.7-0.6c1.6,0,3.1,0.2,4.6,0.7
			c1.5,0.5,2.8,1.2,3.9,2l-2.4,4c-1.2-0.8-2.2-1.3-3.2-1.6c-0.9-0.3-1.9-0.5-2.8-0.5c-1.1,0-1.9,0.3-2.6,0.9s-1,1.4-1,2.3
			c0,0.7,0.2,1.3,0.6,1.7s1.1,0.8,2.3,1.1l3.1,0.9c2.1,0.6,3.8,1.6,4.9,3c1.1,1.4,1.6,3.2,1.6,5.3
			C429.6,292.8,429.4,294.1,428.8,295.3z"/>
		<path fill="#FFFFFF" d="M445.8,287.8h-7.3v12.4h-5.2v-27.8h5.2v10.8h7.3v-10.8h5.2v27.8h-5.2V287.8z"/>
		<path fill="#FFFFFF" d="M456.2,272.4h5.3v27.8h-5.3V272.4z"/>
		<path fill="#FFFFFF" d="M474.8,289.6c-0.4-0.9-0.7-1.8-1.1-2.7s-0.7-1.7-1-2.6c-0.3-0.8-0.6-1.6-0.9-2.2c-0.2-0.7-0.4-1.2-0.5-1.6
			c0,0.6,0.1,1.2,0.1,1.8c0,0.7,0.1,1.3,0.1,2c0,0.7,0,1.4,0,2.1c0,0.7,0,1.3,0,1.9l0.1,11.9h-5v-27.8h5.7l4.9,11.1
			c0.6,1.5,1.2,3,1.7,4.3c0.5,1.4,0.9,2.5,1.1,3.6c0-0.5-0.1-1.1-0.1-1.8c0-0.7-0.1-1.4-0.1-2.1c0-0.7-0.1-1.4-0.1-2
			c0-0.7,0-1.2,0-1.7l-0.1-11.4h5v27.8h-5.4L474.8,289.6z"/>
		<path fill="#FFFFFF" d="M505.8,296c-0.8,1.1-1.7,2.1-2.8,2.8c-1.1,0.7-2.2,1.1-3.4,1.2c-0.5,0.1-1,0.1-1.6,0.1c-0.6,0-1.3,0-2,0
			h-6.2v-27.8h5.1c0.7,0,1.5,0,2.4,0c0.9,0,1.5,0.1,2.1,0.1c1.1,0.1,2.1,0.4,3,0.8c0.9,0.4,1.8,1.1,2.6,1.9c1.2,1.3,2,2.8,2.6,4.6
			c0.6,1.8,0.9,4,0.9,6.5C508.3,290.3,507.5,293.5,505.8,296z M502.4,282.5c-0.2-1.3-0.5-2.4-1-3.4c-0.4-0.8-1-1.4-1.6-1.7
			c-0.6-0.4-1.5-0.6-2.5-0.6h-2.4v18.8h2.8c1.7,0,3-0.7,3.8-2.1c0.8-1.4,1.2-3.6,1.2-6.6C502.6,285.3,502.5,283.8,502.4,282.5z"/>
		<path fill="#FFFFFF" d="M524.2,299c-0.2-0.3-0.4-0.7-0.5-1c-0.2-0.3-0.4-0.7-0.6-1.1c-0.2-0.4-0.4-0.8-0.7-1.3
			c-0.6-1.3-1.2-2.3-1.6-3.1s-0.8-1.5-1.1-2s-0.6-0.9-0.8-1.1c-0.2-0.3-0.5-0.4-0.7-0.5c-0.2-0.1-0.5-0.2-0.8-0.2v11.6h-5v-27.8h9.5
			c1.1,0,2.1,0.2,3.1,0.6c0.9,0.4,1.7,0.9,2.4,1.7c0.7,0.7,1.2,1.6,1.5,2.6s0.5,2.1,0.5,3.3c0,1-0.1,2-0.4,2.9s-0.7,1.7-1.2,2.4
			c-0.5,0.7-1.1,1.2-1.8,1.7c-0.7,0.4-1.4,0.6-2.2,0.7c0.3,0.2,0.5,0.4,0.6,0.6c0.1,0.2,0.3,0.4,0.5,0.6c0.3,0.4,0.7,1,1.2,1.9
			c0.5,0.9,1,1.8,1.6,2.8c0.6,1,1.1,2,1.6,2.9c0.5,0.9,0.9,1.7,1.2,2.3c0.3,0.6,0.5,0.9,0.5,0.9h-6.1
			C524.6,299.8,524.4,299.3,524.2,299z M522.2,277.2c-0.3-0.1-0.7-0.2-1.2-0.3s-1.1-0.1-1.7-0.1h-1.9v7.6h1.8c1.1,0,2-0.1,2.5-0.2
			s1-0.4,1.4-0.7c0.7-0.7,1-1.6,1-2.8C524.1,278.8,523.5,277.7,522.2,277.2z"/>
		<path fill="#FFFFFF" d="M534,272.4h14.6l-0.7,4.6h-8.8v6.4h7.3v4.6h-7.3v7.4h9.7v4.8H534V272.4z"/>
		<path fill="#FFFFFF" d="M563.8,303.8c-1.4-1.4-2.4-3.1-3.2-5.1c-0.4-1.1-0.7-2.3-1-3.6s-0.4-2.8-0.5-4.7c0-1.1,0-2.2,0-3.1
			c0-1.4,0.1-2.7,0.2-4.1c0.1-1.3,0.3-2.5,0.5-3.5c0.3-1.2,0.7-2.4,1.3-3.5c0.6-1.2,1.3-2.2,2-3.1c1.5-1.7,3.3-3.1,5.3-4.1l1.3,3.2
			c-0.5,0.4-0.9,0.7-1.1,0.9c-0.2,0.2-0.5,0.5-0.8,0.8c-1.3,1.4-2.2,3-2.8,4.8c-0.2,0.7-0.4,1.5-0.6,2.3c-0.1,0.8-0.2,1.8-0.3,3
			c0,0.3-0.1,0.6-0.1,0.9c0,0.3,0,0.6,0,0.9v1.6c0,0.9,0,1.9,0.1,3c0,1.1,0.1,2.1,0.2,3.2c0.1,1.4,0.4,2.7,0.6,3.7s0.6,2,1.1,2.9
			c0.4,0.9,0.9,1.6,1.5,2.2c0.6,0.6,1.3,1.1,2.2,1.7l-1.3,3.1C566.7,306.3,565.1,305.2,563.8,303.8z"/>
		<path fill="#FFFFFF" d="M579.7,289.6c-0.4-0.9-0.7-1.8-1.1-2.7s-0.7-1.7-1-2.6c-0.3-0.8-0.6-1.6-0.9-2.2c-0.2-0.7-0.4-1.2-0.5-1.6
			c0,0.6,0.1,1.2,0.1,1.8c0,0.7,0.1,1.3,0.1,2c0,0.7,0,1.4,0,2.1c0,0.7,0,1.3,0,1.9l0.1,11.9h-5v-27.8h5.7l4.9,11.1
			c0.6,1.5,1.2,3,1.7,4.3c0.5,1.4,0.9,2.5,1.1,3.6c0-0.5-0.1-1.1-0.1-1.8c0-0.7-0.1-1.4-0.1-2.1c0-0.7-0.1-1.4-0.1-2
			c0-0.7,0-1.2,0-1.7l-0.1-11.4h5v27.8h-5.4L579.7,289.6z"/>
		<path fill="#FFFFFF" d="M606.4,299c-0.2-0.3-0.4-0.7-0.5-1c-0.2-0.3-0.4-0.7-0.6-1.1c-0.2-0.4-0.4-0.8-0.7-1.3
			c-0.6-1.3-1.2-2.3-1.6-3.1s-0.8-1.5-1.1-2s-0.6-0.9-0.8-1.1c-0.2-0.3-0.5-0.4-0.7-0.5c-0.2-0.1-0.5-0.2-0.8-0.2v11.6h-5v-27.8h9.5
			c1.1,0,2.1,0.2,3.1,0.6c0.9,0.4,1.7,0.9,2.4,1.7c0.7,0.7,1.2,1.6,1.5,2.6s0.5,2.1,0.5,3.3c0,1-0.1,2-0.4,2.9s-0.7,1.7-1.2,2.4
			c-0.5,0.7-1.1,1.2-1.8,1.7c-0.7,0.4-1.4,0.6-2.2,0.7c0.3,0.2,0.5,0.4,0.6,0.6c0.1,0.2,0.3,0.4,0.5,0.6c0.3,0.4,0.7,1,1.2,1.9
			c0.5,0.9,1,1.8,1.6,2.8c0.6,1,1.1,2,1.6,2.9c0.5,0.9,0.9,1.7,1.2,2.3c0.3,0.6,0.5,0.9,0.5,0.9H607
			C606.8,299.8,606.6,299.3,606.4,299z M604.4,277.2c-0.3-0.1-0.7-0.2-1.2-0.3s-1.1-0.1-1.7-0.1h-1.9v7.6h1.8c1.1,0,2-0.1,2.5-0.2
			s1-0.4,1.4-0.7c0.7-0.7,1-1.6,1-2.8C606.3,278.8,605.6,277.7,604.4,277.2z"/>
		<path fill="#FFFFFF" d="M616.1,300.2v-27.8h5.3v23.2h9.2l-0.9,4.6H616.1z"/>
		<path fill="#FFFFFF" d="M640.6,292.6c-0.1,1.4-0.3,2.6-0.5,3.6c-0.3,1.2-0.7,2.4-1.3,3.5c-0.6,1.1-1.3,2.2-2.1,3.1
			c-1.5,1.8-3.3,3.2-5.4,4.1l-1.3-3.2c0.5-0.4,0.9-0.7,1.1-0.9c0.2-0.3,0.5-0.5,0.9-0.8c1.3-1.4,2.2-3,2.8-4.8
			c0.2-0.7,0.4-1.5,0.5-2.3c0.1-0.8,0.2-1.8,0.3-3c0.1-1.2,0.1-2.3,0.1-3.4c0-0.9,0-1.9-0.1-2.9c0-1.1-0.1-2.1-0.2-3.1
			c-0.1-1.4-0.3-2.7-0.6-3.7c-0.2-1-0.6-2-1.1-2.9c-0.2-0.5-0.5-0.9-0.7-1.2c-0.2-0.3-0.5-0.7-0.8-1c-0.3-0.3-0.6-0.6-1-0.9
			c-0.4-0.3-0.8-0.5-1.2-0.8l1.3-3.1c1.8,0.7,3.4,1.7,4.7,3.1c1.4,1.4,2.4,3.1,3.2,5.2c0.4,1.1,0.7,2.3,0.9,3.6
			c0.2,1.3,0.4,2.8,0.5,4.7c0,0.3,0,0.6,0.1,0.8c0,0.3,0,0.5,0,0.8v1.4C640.7,289.9,640.7,291.2,640.6,292.6z"/>
	</g>
	<g>
		<path fill="#FFFFFF" d="M266.4,313.5c-0.2-0.5-0.4-0.9-0.6-1.4c-0.2-0.5-0.4-0.9-0.6-1.4s-0.3-0.8-0.5-1.2
			c-0.1-0.4-0.2-0.7-0.3-0.9l-0.1,0c0.1,0.8,0.1,1.6,0.1,2.5s0,1.7,0.1,2.5l0.1,9.4h-2.3v-17.9h2.7l4.6,9.9c0.2,0.4,0.4,0.8,0.5,1.2
			c0.2,0.5,0.3,0.9,0.5,1.3c0.2,0.4,0.3,0.8,0.4,1.1c0.1,0.3,0.2,0.5,0.2,0.7l0.1-0.1c0-0.1,0-0.4-0.1-0.8c0-0.4-0.1-0.8-0.1-1.4
			s0-1-0.1-1.6c0-0.6,0-1.1,0-1.6l0-8.8h2.3v17.9h-2.5L266.4,313.5z"/>
		<path fill="#FFFFFF" d="M286.6,319.5c-0.2,0.8-0.6,1.5-1.1,2.1c-0.5,0.6-1,1-1.7,1.4s-1.4,0.5-2.2,0.5c-0.8,0-1.5-0.2-2.2-0.5
			s-1.2-0.8-1.6-1.4s-0.8-1.3-1-2.2s-0.4-1.8-0.4-2.9c0-1.1,0.1-2,0.4-2.8s0.6-1.6,1-2.2s1-1.1,1.6-1.4c0.6-0.3,1.4-0.5,2.2-0.5
			c0.9,0,1.7,0.2,2.3,0.5c0.7,0.4,1.2,0.9,1.7,1.5c0.4,0.6,0.8,1.4,1,2.2c0.2,0.8,0.3,1.8,0.3,2.8
			C287,317.7,286.8,318.6,286.6,319.5z M284.3,314.2c-0.1-0.7-0.3-1.2-0.6-1.6s-0.5-0.7-0.9-0.9c-0.3-0.2-0.7-0.3-1.2-0.3
			c-1,0-1.7,0.4-2.1,1.1c-0.4,0.8-0.6,2-0.6,3.6c0,1,0.1,1.8,0.2,2.5c0.1,0.7,0.3,1.2,0.5,1.6c0.2,0.4,0.5,0.7,0.9,0.9
			s0.8,0.3,1.2,0.3c0.8,0,1.5-0.4,2-1.1c0.5-0.8,0.7-2,0.7-3.7C284.5,315.8,284.4,314.9,284.3,314.2z"/>
		<path fill="#FFFFFF" d="M295.1,312c-0.1,0-0.2,0-0.3,0c-0.3,0-0.7,0.1-1,0.2c-0.3,0.1-0.6,0.3-0.8,0.6c-0.2,0.2-0.4,0.5-0.5,0.8
			c-0.1,0.3-0.2,0.7-0.2,1v8.4h-2.2v-9.6c0-0.8,0-1.4-0.1-1.9s-0.2-0.9-0.3-1.3l2.1-0.6c0.1,0.2,0.2,0.6,0.3,0.9
			c0.1,0.4,0.1,0.7,0.1,1.1v0.2c0.9-1.5,2-2.3,3.3-2.3c0.3,0,0.5,0,0.7,0.1l-0.8,2.3C295.3,312.1,295.2,312,295.1,312z"/>
		<path fill="#FFFFFF" d="M307.9,311.7c-0.3,0.1-0.7,0.2-1,0.2c-0.2,0-0.3,0-0.4,0c-0.1,0-0.3-0.1-0.6-0.2c0.3,0.4,0.5,0.8,0.7,1.2
			c0.1,0.4,0.2,0.8,0.2,1.2c0,0.5-0.1,0.9-0.2,1.4c-0.2,0.5-0.4,0.9-0.7,1.3c-0.3,0.4-0.8,0.7-1.3,0.9s-1.2,0.4-2,0.4
			c-0.2,0.1-0.4,0.2-0.6,0.3c-0.2,0.1-0.4,0.2-0.6,0.3c-0.2,0.1-0.3,0.2-0.5,0.4c-0.1,0.1-0.2,0.3-0.2,0.4c0,0.4,0.3,0.6,0.9,0.6
			h1.8c0.8,0,1.4,0.1,2,0.3c0.5,0.2,1,0.4,1.3,0.8c0.3,0.3,0.6,0.7,0.8,1.2c0.2,0.4,0.2,0.9,0.2,1.4c0,0.7-0.1,1.3-0.4,1.9
			c-0.3,0.5-0.6,1-1,1.3c-0.4,0.4-1,0.6-1.6,0.8c-0.6,0.2-1.3,0.3-2,0.3c-1.7,0-3-0.3-3.9-0.9c-0.9-0.6-1.4-1.4-1.4-2.5
			c0-0.3,0-0.5,0.1-0.7c0-0.2,0.1-0.4,0.2-0.6l2.2-0.1c0,0.1-0.1,0.2-0.1,0.4c0,0.2-0.1,0.4-0.1,0.6c0,1.4,1,2.1,2.9,2.1
			c1,0,1.7-0.2,2.2-0.6c0.5-0.4,0.7-0.9,0.7-1.6c0-0.6-0.3-1.1-0.8-1.5c-0.5-0.3-1.4-0.5-2.6-0.5c-0.4,0-0.8,0-1.3,0s-0.8-0.1-1-0.1
			c-0.5-0.1-0.9-0.3-1.2-0.6c-0.3-0.3-0.4-0.7-0.4-1.2c0-0.6,0.2-1.1,0.7-1.4c0.4-0.3,1-0.6,1.7-0.9c-0.9-0.3-1.6-0.8-2.1-1.4
			c-0.5-0.6-0.7-1.4-0.7-2.3c0-0.7,0.1-1.2,0.3-1.8c0.2-0.5,0.5-1,0.9-1.4c0.4-0.4,0.9-0.7,1.4-0.9s1.2-0.3,1.9-0.3
			c0.3,0,0.6,0,0.9,0.1c0.3,0,0.6,0.1,1,0.2c0.3,0.1,0.6,0.2,0.9,0.3c0.3,0.1,0.6,0.1,0.9,0.1c0.4,0,0.7-0.1,1-0.2
			c0.3-0.1,0.6-0.3,0.9-0.6l1.1,1.5C308.6,311.4,308.3,311.6,307.9,311.7z M302.2,311.5c-1.4,0-2.2,0.8-2.2,2.5
			c0,1.6,0.7,2.4,2.2,2.4c1.4,0,2.2-0.8,2.2-2.5C304.4,312.3,303.6,311.5,302.2,311.5z"/>
		<path fill="#FFFFFF" d="M312.4,317.4c0,1.2,0.2,2,0.5,2.6c0.3,0.5,0.7,0.9,1.2,1.2c0.5,0.3,1,0.4,1.6,0.4c1.1,0,2.1-0.4,2.9-1.2
			l0.8,1.4c-1.2,1.1-2.5,1.6-4.1,1.6c-0.8,0-1.6-0.2-2.2-0.5s-1.2-0.8-1.7-1.4c-0.5-0.6-0.8-1.3-1.1-2.2c-0.3-0.8-0.4-1.8-0.4-2.9
			c0-1.1,0.1-2.1,0.3-2.9c0.2-0.8,0.6-1.5,1.1-2.2c0.9-1.2,2.1-1.8,3.6-1.8c1.3,0,2.4,0.5,3.3,1.4c0.3,0.3,0.5,0.6,0.7,0.9
			c0.2,0.3,0.3,0.7,0.5,1.2c0.1,0.4,0.2,0.9,0.3,1.5s0.1,1.2,0.1,2v0.4h-7.2V317.4z M316.7,312.3c-0.2-0.3-0.4-0.5-0.7-0.6
			s-0.6-0.3-1-0.3c-0.9,0-1.5,0.3-1.9,1c-0.4,0.7-0.6,1.6-0.6,2.8h5C317.4,314,317.1,313,316.7,312.3z"/>
		<path fill="#FFFFFF" d="M330.5,320.8c-0.2,0.5-0.5,1-1,1.4c-0.4,0.4-0.9,0.7-1.5,0.9c-0.6,0.2-1.2,0.3-1.9,0.3
			c-0.7,0-1.5-0.1-2.3-0.4s-1.5-0.6-2.2-1l0.8-1.7c0.6,0.3,1.2,0.6,1.9,0.9c0.7,0.3,1.3,0.4,2,0.4s1.2-0.2,1.6-0.6s0.6-0.9,0.6-1.5
			c0-0.6-0.2-1-0.5-1.3c-0.3-0.3-0.8-0.6-1.5-0.7l-1.5-0.3c-1.9-0.4-2.9-1.6-2.9-3.6c0-0.6,0.1-1.1,0.3-1.6s0.5-0.9,0.9-1.3
			c0.4-0.4,0.9-0.6,1.4-0.8s1.1-0.3,1.8-0.3c0.7,0,1.4,0.1,2.1,0.3s1.2,0.5,1.7,0.8l-0.7,1.7c-0.6-0.3-1.1-0.5-1.5-0.7
			c-0.5-0.2-0.9-0.2-1.4-0.2c-0.6,0-1.1,0.2-1.5,0.5c-0.4,0.4-0.6,0.8-0.6,1.4c0,0.5,0.1,0.8,0.4,1.1c0.2,0.3,0.7,0.5,1.3,0.6
			l1.5,0.4c1.1,0.3,1.9,0.7,2.3,1.4s0.7,1.4,0.7,2.3C330.9,319.7,330.8,320.3,330.5,320.8z"/>
		<path fill="#FFFFFF" d="M334,307.5c0-0.7,0-1.2-0.1-1.7c-0.1-0.5-0.1-0.9-0.2-1.3l2.2-0.6c0.1,0.3,0.1,0.8,0.2,1.3
			c0.1,0.5,0.1,1,0.1,1.6v16.2H334V307.5z M336.4,315.7l4-5.6h2.7l-4.3,5.5l5.3,7.5h-2.8L336.4,315.7z"/>
		<path fill="#FFFFFF" d="M352.3,321.7c-0.1,0.1-0.2,0.3-0.4,0.4c-0.2,0.2-0.4,0.4-0.7,0.6c-0.3,0.2-0.6,0.4-1,0.5
			c-0.4,0.1-0.8,0.2-1.4,0.2c-1.2,0-2.1-0.3-2.8-1c-0.7-0.7-1-1.6-1-2.8c0-1.5,0.5-2.7,1.6-3.5c1.1-0.8,2.6-1.2,4.5-1.2h0.6
			c0.1,0,0.2,0,0.2,0v-0.9c0-0.4,0-0.7-0.1-1.1c0-0.3-0.1-0.6-0.3-0.8c-0.1-0.2-0.3-0.4-0.6-0.5s-0.6-0.2-1-0.2
			c-0.6,0-1.3,0.1-2,0.4c-0.7,0.3-1.2,0.6-1.7,1l-1-1.7c0.3-0.2,0.6-0.4,0.9-0.6s0.7-0.4,1.1-0.6c0.4-0.2,0.9-0.3,1.3-0.4
			c0.5-0.1,1-0.2,1.6-0.2c0.9,0,1.6,0.2,2.2,0.5c0.6,0.3,1,0.9,1.2,1.6c0.1,0.3,0.2,0.6,0.2,0.9c0,0.3,0,0.8,0,1.4
			c0,0.2,0,0.5,0,0.9c0,0.4,0,0.7,0,1.2s0,0.9,0,1.4c0,0.5,0,0.9,0,1.4c0,0.5,0,0.8,0,1.2c0,0.3,0.1,0.6,0.1,0.8
			c0.1,0.2,0.2,0.5,0.3,0.6s0.3,0.4,0.6,0.5l-1.1,1.6C353.1,323.3,352.5,322.7,352.3,321.7z M351.5,316.6c-0.1,0-0.2,0-0.3,0
			c-0.8,0-1.5,0.1-2,0.2c-0.5,0.2-0.9,0.4-1.1,0.7c-0.2,0.3-0.4,0.6-0.5,0.9c-0.1,0.3-0.1,0.6-0.1,1.1c0,0.7,0.2,1.3,0.5,1.7
			c0.3,0.4,0.8,0.6,1.4,0.6c0.5,0,1-0.2,1.4-0.5c0.4-0.3,0.8-0.7,1.1-1.3l0.1-3.4C351.7,316.7,351.6,316.6,351.5,316.6z"/>
		<path fill="#FFFFFF" d="M363.1,312c-0.1,0-0.2,0-0.3,0c-0.3,0-0.7,0.1-1,0.2c-0.3,0.1-0.6,0.3-0.8,0.6c-0.2,0.2-0.4,0.5-0.5,0.8
			c-0.1,0.3-0.2,0.7-0.2,1v8.4h-2.2v-9.6c0-0.8,0-1.4-0.1-1.9s-0.2-0.9-0.3-1.3l2.1-0.6c0.1,0.2,0.2,0.6,0.3,0.9
			c0.1,0.4,0.1,0.7,0.1,1.1v0.2c0.9-1.5,2-2.3,3.3-2.3c0.3,0,0.5,0,0.7,0.1l-0.8,2.3C363.3,312.1,363.2,312,363.1,312z"/>
		<path fill="#FFFFFF" d="M368.8,311.7v7.9c0,0.8,0.1,1.4,0.3,1.7c0.2,0.3,0.6,0.4,1.2,0.4c0.4,0,0.8-0.1,1.1-0.3l0.3,1.4
			c-0.7,0.4-1.4,0.5-2.2,0.5c-0.4,0-0.8-0.1-1.2-0.2c-0.4-0.1-0.7-0.3-0.9-0.5c-0.1-0.1-0.2-0.2-0.3-0.4c-0.1-0.1-0.2-0.3-0.3-0.4
			c-0.1-0.2-0.1-0.4-0.2-0.7s-0.1-0.7-0.1-1.1v-8.4h-1.4V310h1.4c0-0.5,0-1.1,0-1.7c0-0.6,0.1-1.2,0.1-1.7l2.3-0.6
			c0,0.2-0.1,0.5-0.1,0.8c0,0.3,0,0.6-0.1,1s0,0.7,0,1.1c0,0.4,0,0.7,0,1h2.9l-0.6,1.7H368.8z"/>
	</g>
</g>
</svg>
